<svg width="33" height="33" viewBox="0 0 33 33" fill="none" xmlns="http://www.w3.org/2000/svg">
<g clip-path="url(#clip0_1_5515)">
<path d="M28.5402 3.9643C27.693 3.12682 26.579 2.61266 25.3921 2.5112C24.2051 2.40973 23.0201 2.72737 22.043 3.40891C25.1838 4.71661 27.7496 7.11031 29.2719 10.153C29.8595 9.18816 30.1067 8.05422 29.9741 6.93237C29.8415 5.81051 29.3366 4.76549 28.5402 3.9643Z" fill="white"/>
<path d="M10.8645 3.60295C9.89149 2.83014 8.66921 2.44024 7.42839 2.50683C6.18757 2.57341 5.01403 3.09189 4.12928 3.9644C3.25182 4.84767 2.73214 6.02431 2.67029 7.2678C2.60844 8.51128 3.0088 9.73369 3.79428 10.6997C5.2088 7.55246 7.72264 5.02922 10.8645 3.60295Z" fill="white"/>
<path d="M15.2548 4.18479C12.9531 4.45367 10.7736 5.36512 8.96571 6.81483C7.15783 8.26455 5.79461 10.194 5.03207 12.3822C4.26952 14.5705 4.13846 16.9293 4.65387 19.1886C5.16929 21.4479 6.31036 23.5165 7.9465 25.1576L5.69847 27.4056C5.61685 27.4889 5.55245 27.5875 5.50895 27.6958C5.46544 27.804 5.44368 27.9198 5.44491 28.0364C5.44614 28.1531 5.47033 28.2684 5.5161 28.3757C5.56188 28.483 5.62834 28.5802 5.7117 28.6618C5.79505 28.7434 5.89367 28.8078 6.00191 28.8514C6.11015 28.8949 6.22591 28.9166 6.34256 28.9154C6.45921 28.9142 6.57448 28.89 6.68179 28.8442C6.78909 28.7984 6.88633 28.732 6.96795 28.6486L9.31295 26.3036C11.4574 27.9264 14.0762 28.7987 16.7654 28.7859C19.4546 28.7732 22.065 27.8761 24.194 26.2331L26.6095 28.6486C26.7782 28.793 26.9951 28.8685 27.217 28.8599C27.4389 28.8514 27.6493 28.7594 27.8063 28.6024C27.9633 28.4454 28.0553 28.2349 28.0639 28.013C28.0724 27.7912 27.997 27.5742 27.8526 27.4056L25.4811 25.0694C27.2607 23.2465 28.4326 20.9175 28.836 18.4021C29.2393 15.8867 28.8545 13.3081 27.7341 11.0202C26.6138 8.7322 24.8129 6.84696 22.5786 5.62314C20.3443 4.39933 17.786 3.89689 15.2548 4.18479ZM18.0582 26.9383C15.8671 27.2253 13.6412 26.819 11.6928 25.7763C9.74448 24.7336 8.17155 23.107 7.19485 21.1248C6.21814 19.1425 5.88668 16.9042 6.24701 14.724C6.60734 12.5438 7.64137 10.5311 9.20393 8.96853C10.7665 7.40597 12.7791 6.37195 14.9594 6.01162C17.1396 5.65129 19.3779 5.98274 21.3602 6.95945C23.3424 7.93616 24.969 9.50908 26.0117 11.4574C27.0543 13.4058 27.4607 15.6317 27.1737 17.8228C26.871 20.1343 25.8132 22.281 24.1648 23.9294C22.5164 25.5778 20.3697 26.6356 18.0582 26.9383Z" fill="white"/>
<path d="M22.7659 18.5104L17.4235 15.8656V8.95407C17.4235 8.74364 17.3399 8.54183 17.1911 8.39303C17.0423 8.24424 16.8405 8.16064 16.6301 8.16064C16.4197 8.16064 16.2179 8.24424 16.0691 8.39303C15.9203 8.54183 15.8367 8.74364 15.8367 8.95407V16.8883L22.0606 19.9738C22.25 20.0662 22.4683 20.0795 22.6675 20.0109C22.8668 19.9423 23.0306 19.7973 23.1229 19.6079C23.2153 19.4186 23.2286 19.2002 23.16 19.001C23.0914 18.8018 22.9465 18.638 22.7571 18.5456L22.7659 18.5104Z" fill="white"/>
</g>
<defs>
<clipPath id="clip0_1_5515">
<rect width="31.7368" height="31.7368" fill="white" transform="translate(0.796875 0.579102)"/>
</clipPath>
</defs>
</svg>
