<svg width="222" height="207" viewBox="0 0 222 207" fill="none" xmlns="http://www.w3.org/2000/svg">
<path d="M83.4057 41.3721H78.8987V24.7458H83.4057V41.3721Z" fill="#DADBD8"/>
<path d="M88.2236 17.2515C88.2236 17.3424 86.1058 17.4148 83.4928 17.4148C80.8797 17.4148 78.762 17.3424 78.762 17.2515C78.762 17.1605 80.8797 17.0881 83.4928 17.0881C86.1058 17.0881 88.2236 17.1605 88.2236 17.2515Z" fill="#DADBD8"/>
<path d="M88.2236 15.8354C88.2236 15.9264 86.1058 15.9988 83.4928 15.9988C80.8797 15.9988 78.762 15.9264 78.762 15.8354C78.762 15.7465 80.8797 15.6721 83.4928 15.6721C86.1058 15.6721 88.2236 15.7465 88.2236 15.8354Z" fill="#DADBD8"/>
<path d="M3.34245 172.114C3.34245 172.466 3.34245 191.575 3.34245 191.575H0.0849609V193.686H3.34245V206.711H64.2151V194.86H59.7061V192.278H64.2151V188.406H66.219V186.646H63.8401V172.114H3.34245Z" fill="#E7E8E5"/>
<path d="M48.05 172.17V206.493H64.2152V194.643H59.7061V192.278L64.2152 192.358V188.486L66.2584 188.488L66.219 186.487L63.8401 186.429V172.114L48.05 172.17Z" fill="#DADBD8"/>
<path d="M49.2021 193.407C49.2021 193.527 38.1863 193.622 24.6011 193.622C11.0116 193.622 0 193.527 0 193.407C0 193.287 11.0116 193.192 24.6011 193.192C38.1863 193.192 49.2021 193.287 49.2021 193.407Z" fill="#DADBD8"/>
<path d="M49.2021 191.43C49.2021 191.55 38.1863 191.645 24.6011 191.645C11.0116 191.645 0 191.55 0 191.43C0 191.31 11.0116 191.215 24.6011 191.215C38.1863 191.215 49.2021 191.31 49.2021 191.43Z" fill="#DADBD8"/>
<path d="M52.3623 186.111C52.3623 186.228 41.3465 186.326 27.7612 186.326C14.1718 186.326 3.16016 186.228 3.16016 186.111C3.16016 185.991 14.1718 185.894 27.7612 185.894C41.3465 185.894 52.3623 185.991 52.3623 186.111Z" fill="#DADBD8"/>
<path d="M52.6648 200.607C52.6648 200.725 41.6511 200.822 28.0658 200.822C14.4763 200.822 3.46265 200.725 3.46265 200.607C3.46265 200.487 14.4763 200.392 28.0658 200.392C41.6511 200.392 52.6648 200.487 52.6648 200.607Z" fill="#DADBD8"/>
<path d="M11.2395 139.689C11.2395 140.024 11.2395 158.132 11.2395 158.132H8.15405V160.134H11.2395V172.478H68.9314V161.246H64.6565V158.8H68.9314V155.13H70.8295V153.462H68.575V139.689H11.2395Z" fill="#F3F2F1"/>
<path d="M53.6118 139.745V172.271H68.9315V161.041H64.6566V158.8L68.9315 158.877V155.207L70.867 155.209L70.8297 153.311L68.5751 153.257V139.689L53.6118 139.745Z" fill="#DADBD8"/>
<path d="M54.7018 159.869C54.7018 159.982 44.2642 160.073 31.3876 160.073C18.5089 160.073 8.07129 159.982 8.07129 159.869C8.07129 159.757 18.5089 159.664 31.3876 159.664C44.2642 159.664 54.7018 159.757 54.7018 159.869Z" fill="#DADBD8"/>
<path d="M54.7018 157.996C54.7018 158.109 44.2642 158.2 31.3876 158.2C18.5089 158.2 8.07129 158.109 8.07129 157.996C8.07129 157.884 18.5089 157.791 31.3876 157.791C44.2642 157.791 54.7018 157.884 54.7018 157.996Z" fill="#DADBD8"/>
<path d="M57.6981 152.953C57.6981 153.067 47.2584 153.158 34.3839 153.158C21.5032 153.158 11.0676 153.067 11.0676 152.953C11.0676 152.842 21.5032 152.751 34.3839 152.751C47.2584 152.751 57.6981 152.842 57.6981 152.953Z" fill="#DADBD8"/>
<path d="M57.9861 166.693C57.9861 166.807 47.5464 166.898 34.6719 166.898C21.7911 166.898 11.3535 166.807 11.3535 166.693C11.3535 166.58 21.7911 166.489 34.6719 166.489C47.5464 166.489 57.9861 166.58 57.9861 166.693Z" fill="#DADBD8"/>
<path d="M187.251 147.725C184.098 146.1 180.382 145.889 176.878 146.466C174.996 146.776 173.034 147.338 171.753 148.748C170.473 150.16 170.23 152.641 171.7 153.853C172.576 154.574 173.797 154.684 174.932 154.671C177.674 154.638 180.718 154.156 182.908 155.804C184.158 156.743 184.989 158.304 186.485 158.767C187.946 159.217 189.597 158.357 190.372 157.04C191.147 155.724 191.172 154.078 190.811 152.593C190.811 152.593 190.43 149.36 187.251 147.725Z" fill="#E7E8E5"/>
<path d="M194.481 133.801C192.552 136.55 188.801 135.641 187.063 133.962C185.324 132.283 184.589 129.852 183.919 127.532C182.392 122.231 180.85 116.672 181.988 111.276C182.328 109.663 182.931 108.053 184.069 106.856C185.204 105.659 186.951 104.948 188.549 105.369C190.441 105.868 191.615 107.714 192.465 109.473C194.962 114.64 196.282 120.366 196.303 126.102C196.313 128.781 195.996 131.588 194.481 133.801Z" fill="#E7E8E5"/>
<mask id="mask0_1_5379" style="mask-type:alpha" maskUnits="userSpaceOnUse" x="197" y="113" width="25" height="27">
<path d="M197.699 113.734H222V139.139H197.699V113.734Z" fill="black"/>
</mask>
<g mask="url(#mask0_1_5379)">
<path d="M199.78 137.745C197.685 135.264 197.287 131.646 198.22 128.539C199.15 125.432 201.257 122.787 203.684 120.629C206.531 118.099 209.876 116.13 213.471 114.869C214.886 114.373 216.378 113.98 217.872 114.123C219.366 114.266 220.869 115.026 221.565 116.352C222.597 118.311 221.608 120.689 220.541 122.628C218.66 126.046 216.507 129.314 214.113 132.395C212.186 134.874 209.979 137.317 207.043 138.438C204.107 139.556 201.056 139.424 199.5 137.394" fill="#E7E8E5"/>
</g>
<path d="M194.612 175.275C194.575 175.277 194.517 174.831 194.438 174.024C194.349 173.117 194.237 171.974 194.104 170.615C193.945 169.18 193.735 167.475 193.335 165.614C192.938 163.76 192.314 161.75 191.514 159.712C190.685 157.686 189.674 155.846 188.493 154.372C187.32 152.891 185.956 151.822 184.674 151.204C183.395 150.574 182.249 150.317 181.458 150.204C180.658 150.123 180.21 150.061 180.21 150.024C180.21 149.989 180.658 149.982 181.48 150.005C182.293 150.059 183.486 150.266 184.833 150.875C186.184 151.473 187.631 152.56 188.862 154.072C190.103 155.575 191.149 157.456 191.993 159.519C192.807 161.593 193.422 163.623 193.802 165.519C194.181 167.411 194.355 169.135 194.469 170.582C194.577 172.029 194.618 173.202 194.639 174.014C194.655 174.822 194.647 175.273 194.612 175.275Z" fill="#DADBD8"/>
<path d="M194.376 172.652C194.357 172.65 194.347 172.451 194.343 172.071C194.345 171.637 194.345 171.087 194.347 170.413C194.351 168.976 194.351 166.894 194.272 164.322C194.146 159.18 193.702 153.646 192.844 145.846C192.034 138.51 190.944 129.974 189.794 124.423C189.547 123.16 189.299 122.023 189.067 121.03C188.843 120.032 188.652 119.174 188.47 118.477C188.31 117.824 188.182 117.29 188.08 116.866C187.997 116.496 187.962 116.3 187.979 116.294C187.995 116.29 188.066 116.476 188.182 116.838C188.308 117.255 188.468 117.78 188.663 118.425C188.876 119.114 189.096 119.97 189.346 120.962C189.608 121.952 189.881 123.085 190.153 124.346C191.288 129.376 192.494 136.406 193.358 144.225C194.218 152.044 194.604 159.162 194.639 164.316C194.668 166.892 194.614 168.98 194.548 170.419C194.506 171.093 194.473 171.641 194.446 172.075C194.417 172.453 194.394 172.652 194.376 172.652Z" fill="#DADBD8"/>
<path d="M194.343 158.922C194.305 158.922 194.312 158.306 194.355 157.192C194.417 156.077 194.571 154.469 194.886 152.499C195.217 150.534 195.683 148.198 196.415 145.664C196.732 144.504 197.476 141.727 199.281 137.576C201.655 131.95 204.884 127.352 207.694 124.506C208.351 123.749 209.086 123.203 209.673 122.67C209.977 122.413 210.245 122.157 210.518 121.954C210.794 121.766 211.049 121.591 211.285 121.427C212.211 120.797 212.727 120.464 212.748 120.493C212.831 120.606 210.678 121.87 207.957 124.756C205.251 127.636 202.111 132.203 199.753 137.781C198.439 140.805 197.523 143.503 196.873 145.794C196.123 148.306 195.623 150.615 195.246 152.561C194.888 154.512 194.68 156.104 194.554 157.206C194.452 158.312 194.378 158.924 194.343 158.922Z" fill="#DADBD8"/>
<path d="M207.642 183.14L206.264 201.986H181.994L180.616 183.14H207.642Z" fill="#DADBD8"/>
<path d="M209.986 175.711V183.14H177.722V175.711H209.986Z" fill="#DADBD8"/>
<path d="M209.986 201.267V203.326H178.254V201.267H209.986Z" fill="#E7E8E5"/>
<mask id="mask1_1_5379" style="mask-type:alpha" maskUnits="userSpaceOnUse" x="179" y="203" width="30" height="4">
<path d="M179.133 203.179H208.84V207H179.133V203.179Z" fill="black"/>
</mask>
<g mask="url(#mask1_1_5379)">
<path d="M206.985 206.95L208.471 203.326H179.41L181.143 206.95H206.985Z" fill="#DADBD8"/>
</g>
<path d="M181.068 189.301C181.062 189.305 181.099 189.363 181.18 189.472C181.275 189.6 181.395 189.758 181.543 189.952C181.887 190.392 182.361 190.998 182.956 191.757L183.018 191.837L183.08 191.755C183.969 190.529 185.156 188.889 186.553 186.962H186.352C187.386 188.42 188.538 190.047 189.773 191.792L189.881 191.943L189.999 191.802C191.261 190.303 192.633 188.676 194.057 186.987L193.822 186.985C193.891 187.072 193.97 187.169 194.044 187.264C195.302 188.838 196.52 190.359 197.67 191.8L197.793 191.951L197.905 191.794C199.133 190.055 200.283 188.432 201.326 186.965L201.127 186.973C202.812 188.889 204.241 190.514 205.34 191.763L205.414 191.848L205.472 191.753C206.026 190.82 206.469 190.078 206.79 189.541C206.929 189.301 207.041 189.106 207.128 188.951C207.203 188.817 207.24 188.747 207.232 188.743C207.225 188.738 207.178 188.802 207.091 188.929C206.993 189.077 206.869 189.264 206.716 189.495C206.38 190.024 205.914 190.752 205.331 191.666L205.464 191.656C204.384 190.392 202.975 188.749 201.318 186.807L201.212 186.685L201.119 186.818C200.07 188.279 198.908 189.894 197.666 191.625L197.898 191.618C196.75 190.177 195.536 188.652 194.28 187.076C194.204 186.981 194.129 186.884 194.059 186.797L193.943 186.652L193.824 186.793C192.405 188.486 191.039 190.115 189.78 191.616L190.007 191.627C188.76 189.89 187.595 188.271 186.553 186.82L186.452 186.679L186.352 186.82C184.984 188.769 183.824 190.425 182.954 191.664L183.078 191.66C182.458 190.92 181.965 190.33 181.607 189.902C181.447 189.716 181.317 189.567 181.213 189.448C181.122 189.346 181.072 189.295 181.068 189.301Z" fill="#F3F2F1"/>
<path d="M180.279 183.016C180.279 183.098 186.358 183.167 193.86 183.167C201.361 183.167 207.439 183.098 207.439 183.016C207.439 182.933 201.361 182.865 193.86 182.865C186.358 182.865 180.279 182.933 180.279 183.016Z" fill="#F3F2F1"/>
<path d="M179.052 203.529C179.052 203.611 185.662 203.68 193.812 203.68C201.964 203.68 208.572 203.611 208.572 203.529C208.572 203.444 201.964 203.378 193.812 203.378C185.662 203.378 179.052 203.444 179.052 203.529Z" fill="#F3F2F1"/>
<mask id="mask2_1_5379" style="mask-type:alpha" maskUnits="userSpaceOnUse" x="5" y="206" width="211" height="1">
<path d="M5.13477 206.355H215.736V207H5.13477V206.355Z" fill="black"/>
</mask>
<g mask="url(#mask2_1_5379)">
<path d="M215.309 206.864C215.309 206.938 168.264 207 110.245 207C52.2045 207 5.16992 206.938 5.16992 206.864C5.16992 206.787 52.2045 206.725 110.245 206.725C168.264 206.725 215.309 206.787 215.309 206.864Z" fill="#17282F"/>
</g>
<path d="M119.518 10.1313C119.746 6.15354 122.197 3.70778 125.631 1.67756C129.067 -0.354717 133.52 -0.555257 137.125 1.15657C139.537 2.30193 141.647 4.25771 144.295 4.59884C148.657 5.15911 152.785 1.12763 157.066 2.13446C159.598 2.73195 161.53 5.26041 161.432 7.85503C161.335 10.4497 159.221 12.8293 156.65 13.2324C159.505 13.6459 161.121 17.2494 160.067 19.9309C159.01 22.6103 156.013 24.165 153.127 24.227C150.242 24.289 147.47 23.1147 144.973 21.6696C142.478 20.2244 140.147 18.4857 137.544 17.2432C134.941 16.0007 131.947 15.273 129.158 16.0152C125.382 17.0158 122.707 20.5738 121.723 24.3448C120.738 28.1179 121.163 32.1018 121.748 35.9555C122.336 39.8092 123.08 43.6959 122.713 47.5765C122.67 48.0334 122.568 48.5544 122.166 48.7756C121.586 49.094 120.921 48.5482 120.494 48.0417C115.67 42.3376 111.986 35.6764 109.716 28.5624C108.399 24.4317 107.671 20.4105 109.254 16.3728C110.835 12.3331 116.165 8.48973 119.518 10.1313Z" fill="#17282F"/>
<path d="M115.842 29.3522L122.224 68.6436C123.416 75.9788 128.196 83.0701 139.736 80.6616C149.591 77.8168 148.86 70.7441 147.575 62.0237C147.575 62.0237 147.608 62.3607 147.575 62.0237C147.575 62.0237 158.417 59.2099 157.445 48.2092C156.977 42.8938 155.116 32.0253 153.319 22.2092C151.39 11.6695 141.659 4.38177 130.973 5.45477L129.91 5.56021C118.521 7.37748 113.705 18.0433 115.842 29.3522Z" fill="#F9A78D"/>
<path d="M147.575 62.0237C147.575 62.0237 140.677 63.1256 132.813 59.2327C132.813 59.2327 137.136 67.4052 148.025 65.313L147.575 62.0237Z" fill="#F57F62"/>
<path d="M149.583 33.2141C149.697 34.039 149.088 34.8164 148.226 34.9487C147.366 35.081 146.576 34.5228 146.463 33.6979C146.351 32.8709 146.958 32.0936 147.82 31.9613C148.68 31.8269 149.471 32.3892 149.583 33.2141Z" fill="#17282F"/>
<path d="M151.496 27.8386C151.322 28.064 150.043 27.3032 148.35 27.4768C146.659 27.6278 145.505 28.6201 145.3 28.432C145.201 28.3493 145.362 27.9606 145.864 27.5141C146.357 27.0696 147.225 26.5982 148.28 26.4969C149.335 26.3956 150.261 26.6933 150.81 27.0385C151.37 27.3859 151.585 27.7373 151.496 27.8386Z" fill="#17282F"/>
<path d="M133.729 34.2251C133.843 35.0521 133.236 35.8273 132.374 35.9597C131.514 36.094 130.722 35.5338 130.61 34.7089C130.498 33.884 131.105 33.1066 131.965 32.9722C132.827 32.8399 133.617 33.4002 133.729 34.2251Z" fill="#17282F"/>
<path d="M134.895 29.8236C134.721 30.0469 133.439 29.2882 131.75 29.4618C130.057 29.6107 128.903 30.603 128.698 30.4149C128.598 30.3343 128.758 29.9435 129.261 29.497C129.754 29.0525 130.625 28.5811 131.679 28.4798C132.732 28.3806 133.658 28.6783 134.21 29.0235C134.767 29.3688 134.982 29.7223 134.895 29.8236Z" fill="#17282F"/>
<path d="M142.299 41.7279C142.281 41.6307 143.315 41.3454 144.997 40.9567C145.424 40.8678 145.826 40.7417 145.868 40.4399C145.938 40.1194 145.71 39.6728 145.451 39.1911C144.939 38.1884 144.405 37.1382 143.843 36.0362C141.597 31.5417 139.925 27.8265 140.107 27.7397C140.289 27.6508 142.258 31.2212 144.502 35.7179C145.045 36.8281 145.565 37.8845 146.061 38.8976C146.272 39.371 146.61 39.8982 146.454 40.566C146.371 40.9009 146.077 41.1655 145.808 41.2689C145.54 41.3805 145.296 41.4095 145.085 41.4426C143.379 41.7072 142.316 41.823 142.299 41.7279Z" fill="#17282F"/>
<path d="M134.666 23.1624C134.545 23.6379 132.834 23.5904 130.874 24.0287C128.903 24.4277 127.359 25.1678 127.054 24.7833C126.918 24.5972 127.154 24.1382 127.757 23.6276C128.354 23.119 129.334 22.5959 130.513 22.3437C131.692 22.0936 132.801 22.1742 133.555 22.3933C134.313 22.6146 134.715 22.9371 134.666 23.1624Z" fill="#17282F"/>
<path d="M150.383 23.0155C150.124 23.429 148.918 23.1478 147.515 23.2698C146.106 23.3421 144.952 23.7866 144.639 23.4145C144.498 23.2305 144.645 22.8274 145.128 22.4118C145.602 22.0004 146.429 21.6179 147.395 21.5518C148.361 21.4856 149.231 21.7482 149.757 22.0934C150.292 22.4366 150.495 22.815 150.383 23.0155Z" fill="#17282F"/>
<path d="M117.56 37.3964C117.365 37.3323 109.77 35.9223 110.767 43.4085C111.764 50.8946 119.093 48.3517 119.076 48.1346C119.062 47.9196 117.56 37.3964 117.56 37.3964Z" fill="#F9A78D"/>
<path d="M116.407 45.602C116.37 45.5834 116.287 45.7116 116.08 45.8418C115.879 45.97 115.516 46.0858 115.106 45.9928C114.275 45.8067 113.44 44.6386 113.225 43.2948C113.115 42.6167 113.171 41.9489 113.341 41.3783C113.498 40.8015 113.801 40.3714 114.19 40.2474C114.576 40.1027 114.891 40.3053 115.009 40.5038C115.137 40.6981 115.11 40.8552 115.152 40.8614C115.177 40.878 115.297 40.7146 115.195 40.4149C115.143 40.2701 115.031 40.1047 114.837 39.9848C114.638 39.8628 114.362 39.8215 114.089 39.8897C113.515 40.0055 113.065 40.6051 112.878 41.2315C112.659 41.8621 112.578 42.6167 112.702 43.3775C112.951 44.8805 113.915 46.1892 115.04 46.3587C115.587 46.4249 116.005 46.2078 116.208 46.001C116.418 45.786 116.434 45.6124 116.407 45.602Z" fill="#F57F62"/>
<path d="M152.42 11.9673C151.222 9.90607 149.303 8.3555 147.262 7.11711C142.865 4.44806 137.654 3.03394 132.525 3.4681C127.398 3.90433 122.394 6.25499 119.047 10.1562C116.37 13.278 114.82 17.2764 114.323 21.3555C113.83 25.4324 114.352 29.5942 115.479 33.545C115.974 35.2796 116.642 37.0638 118.015 38.236C118.873 38.97 120.26 39.369 121.082 38.5978C121.567 38.143 121.687 37.4339 121.785 36.7764C122.649 30.8346 123.449 24.4608 120.759 19.0896C122.008 17.0738 123.511 15.1635 125.465 13.8156C127.421 12.4676 129.881 11.7295 132.21 12.1968C135.67 12.8894 138.066 15.9409 140.973 17.938C145.128 20.7931 150.7 21.4692 155.421 19.6953L152.42 11.9673Z" fill="#17282F"/>
<path d="M143.789 46.2885C143.667 46.9935 143.543 47.7088 143.228 48.3518C142.911 48.9927 142.37 49.5633 141.676 49.7411C140.936 49.9333 140.124 49.6418 139.579 49.1105C139.03 48.5771 138.727 47.8349 138.605 47.0824C138.493 46.4022 138.634 45.5339 139.289 45.3126C139.56 45.2217 139.858 45.2734 140.14 45.323C141.417 45.5545 142.693 45.784 143.97 46.0156" fill="#F57F62"/>
<path d="M142.987 49.4784C142.946 49.3709 142.237 49.8464 141.056 49.6397C140.484 49.5363 139.819 49.2386 139.363 48.6473C138.909 48.0622 138.661 47.1939 138.833 46.3525C138.872 46.1437 138.951 45.9431 139.032 45.7632C139.139 45.5875 139.116 45.5999 139.272 45.5896C139.425 45.5999 139.68 45.6599 139.885 45.693C140.099 45.7322 140.308 45.7715 140.513 45.8087C141.332 45.9555 142.073 46.0796 142.695 46.1726C143.941 46.3628 144.72 46.4372 144.736 46.3504C144.755 46.2636 144.007 46.032 142.784 45.7281C142.173 45.5772 141.441 45.4076 140.629 45.2278C140.426 45.1823 140.217 45.1389 140.005 45.0913C139.782 45.05 139.606 44.9921 139.305 44.9611C139.16 44.9507 138.959 44.9714 138.785 45.0872C138.615 45.2009 138.524 45.3518 138.46 45.4738C138.346 45.7157 138.252 45.9617 138.203 46.2243C137.991 47.2745 138.315 48.3165 138.901 49.0194C139.502 49.7348 140.333 50.0346 140.996 50.0883C141.671 50.1524 142.208 49.9911 142.538 49.8299C142.869 49.6645 143.008 49.5115 142.987 49.4784Z" fill="#17282F"/>
<path d="M159.579 3.66414C159.596 3.66 159.646 3.82746 159.727 4.15618C159.778 4.48697 159.857 4.98936 159.776 5.63233C159.654 6.89966 158.912 8.79136 157.056 10.2324C155.209 11.694 152.289 12.2812 149.283 11.8222C146.235 11.4067 143.188 9.94705 140.003 8.63837C136.835 7.32968 133.553 6.44689 130.625 6.98236C127.697 7.47854 125.428 9.15936 123.934 10.803C122.419 12.4631 121.569 14.115 121.076 15.2686C120.595 16.4367 120.427 17.121 120.378 17.1086C120.363 17.1045 120.394 16.9308 120.473 16.6042C120.539 16.2734 120.691 15.8041 120.898 15.1983C121.343 14.0095 122.158 12.3039 123.677 10.5714C125.171 8.85958 127.489 7.08366 130.546 6.53786C133.609 5.95485 136.993 6.86451 140.188 8.18353C143.4 9.50462 146.396 10.9518 149.349 11.3756C152.269 11.8449 155.066 11.3095 156.844 9.95532C158.647 8.61562 159.412 6.82317 159.588 5.60752C159.776 4.365 159.513 3.67034 159.579 3.66414Z" fill="#33535F"/>
<path d="M110.307 26.4723C110.253 26.4661 110.255 25.6557 110.599 24.4028C110.928 23.152 111.643 21.465 112.876 19.8938C113.483 19.1061 114.165 18.4383 114.828 17.8883C115.491 17.3363 116.213 16.9311 116.886 16.8092C117.559 16.683 118.121 16.8174 118.453 16.987C118.79 17.1606 118.915 17.3343 118.896 17.355C118.875 17.4273 118.177 16.8381 116.963 17.1482C115.782 17.4501 114.457 18.7153 113.262 20.1956C112.076 21.709 111.337 23.3112 110.931 24.5041C110.51 25.6991 110.388 26.4847 110.307 26.4723Z" fill="#33535F"/>
<path d="M112.294 32.9535C112.242 32.9432 112.311 32.1328 112.721 30.8902C113.125 29.6518 113.937 28 115.224 26.4597C116.517 24.9236 118.001 23.8341 119.153 23.218C120.305 22.5957 121.093 22.3848 121.111 22.4345C121.142 22.5109 120.409 22.8335 119.329 23.5157C118.25 24.1938 116.853 25.2875 115.601 26.774C114.356 28.2667 113.525 29.8317 113.046 31.0122C112.563 32.1927 112.375 32.9701 112.294 32.9535Z" fill="#33535F"/>
<path d="M152.723 75.3503C152.723 75.3503 160.769 85.7061 162.704 89.597C164.638 93.4879 178.515 136.472 178.515 136.472L172.498 138.994L152.723 75.3503Z" fill="#33535F"/>
<path d="M120.343 65.6541V60.4648L149.583 69.9481L157.416 82.4581L163.454 99.9279L146.527 74.5502L120.343 65.6541Z" fill="#E7E8E5"/>
<path d="M118.606 70.6449C118.606 70.6449 106.2 85.4518 106.469 95.0757C106.732 104.555 119.617 162.155 119.617 162.155L116.499 172.449L113.121 206.756H183.408L178.515 136.472C177.734 136.424 163.104 96.19 163.104 96.19L146.757 73.5393L119.833 63.8596L118.606 70.6449Z" fill="#33535F"/>
<path d="M172.166 119.73C172.166 119.73 177.083 119.535 179.651 120.679C182.216 121.822 184.388 121.251 186.205 124.795C188.02 128.339 190.142 129.939 190.588 135.312C191.033 140.685 185.217 153.127 181.377 154.876C177.537 156.625 172.166 119.73 172.166 119.73Z" fill="#33535F"/>
<path d="M158.473 167.891C158.405 167.891 158.338 167.888 158.276 167.884C153.773 167.576 153.232 151.299 149.575 148.725C145.92 146.154 117.185 119.242 117.185 119.242L134.139 116.796L177.369 157.427C177.369 157.427 163.187 167.891 158.473 167.891Z" fill="#20353D"/>
<path d="M157.65 143.338C157.65 143.338 151.401 151.318 150.684 153.317C149.969 155.316 149.275 156.646 150.037 157.313C150.802 157.979 151.465 158.06 152.227 157.77C153.247 157.382 158.27 150.77 158.27 150.77C158.27 150.77 151.608 160.251 151.305 161.887C151.001 163.532 152.306 164.316 153.833 164.028C155.361 163.743 158.27 159.459 158.27 159.459C158.27 159.459 154.148 164.221 155.017 165.029C155.887 165.84 156.888 165.935 158.034 165.362C159.18 164.791 162.089 161.031 162.089 161.031C162.089 161.031 160.085 163.173 161.183 163.696C162.282 164.221 162.375 164.277 163.33 163.487C164.285 162.697 172.709 154.469 172.709 154.469L167.388 150.84L157.65 143.338Z" fill="#F9A78D"/>
<path d="M160.214 148.213C160.243 148.24 159.855 148.74 159.231 149.55C158.558 150.427 157.721 151.514 156.794 152.716C155.837 153.95 154.94 155.048 154.264 155.819C153.591 156.59 153.145 157.041 153.116 157.018C153.087 156.991 153.481 156.495 154.115 155.693C154.797 154.822 155.642 153.741 156.577 152.546C157.534 151.314 158.415 150.206 159.08 149.426C159.743 148.647 160.184 148.19 160.214 148.213Z" fill="#F57F62"/>
<path d="M164.638 152.035C164.696 152.085 163.204 153.937 161.306 156.172C159.408 158.409 157.822 160.181 157.764 160.131C157.706 160.082 159.196 158.229 161.094 155.994C162.992 153.76 164.58 151.988 164.638 152.035Z" fill="#F57F62"/>
<path d="M168.187 154.432C168.243 154.483 166.681 156.278 164.696 158.44C162.711 160.603 161.057 162.315 161.001 162.263C160.945 162.211 162.507 160.417 164.493 158.254C166.476 156.092 168.131 154.38 168.187 154.432Z" fill="#F57F62"/>
<path d="M122.409 79.8613C126.443 79.0074 131.572 78.6518 135.472 80.8578L156.794 100.048C156.794 100.048 186.843 133.685 188.024 135.56C189.206 137.435 190.789 148.504 186.234 154.146C181.682 159.786 176.571 157.617 170.726 156.288C166.103 155.236 133.791 131.549 120.508 121.71C115.916 118.309 112.545 113.49 111.067 107.976C110.183 104.67 109.598 100.835 109.998 97.0395" fill="#33535F"/>
<path d="M109.998 97.0397C109.998 97.0397 109.992 97.2278 109.963 97.5917C109.938 97.9577 109.909 98.5014 109.901 99.2146C109.892 100.639 109.996 102.752 110.526 105.411C110.798 106.736 111.146 108.206 111.693 109.759C112.236 111.313 113.009 112.936 114.018 114.574C115.04 116.201 116.312 117.832 117.878 119.349C119.422 120.896 121.343 122.194 123.289 123.645C131.116 129.399 140.449 136.232 150.959 143.613C153.589 145.455 156.295 147.328 159.082 149.205C161.873 151.074 164.731 152.98 167.75 154.727C168.51 155.149 169.273 155.585 170.077 155.918C170.473 156.092 170.883 156.189 171.322 156.29L172.62 156.602C174.344 157.03 176.082 157.471 177.866 157.638C179.636 157.791 181.499 157.595 183.072 156.693C184.645 155.825 185.967 154.471 186.92 152.92C188.451 150.274 189.015 147.2 189.116 144.223C189.172 142.726 189.114 141.231 188.934 139.763C188.843 139.029 188.723 138.303 188.567 137.586C188.385 136.885 188.234 136.145 187.854 135.56C186.982 134.417 186 133.313 185.067 132.215C184.118 131.123 183.177 130.038 182.245 128.963C180.365 126.823 178.517 124.718 176.704 122.653C169.406 114.429 162.665 106.831 156.711 100.122L156.722 100.131C147.909 92.1751 140.642 85.613 135.428 80.9076L135.438 80.9159C133.546 79.8553 131.619 79.4831 129.978 79.326C128.326 79.1813 126.922 79.2619 125.8 79.3632C124.677 79.4728 123.83 79.6134 123.264 79.7105C122.984 79.7622 122.773 79.7994 122.624 79.8284C122.481 79.8532 122.408 79.8615 122.408 79.8615C122.408 79.8615 122.692 79.7912 123.258 79.6754C123.822 79.5679 124.667 79.4149 125.792 79.295C126.917 79.1813 128.324 79.0903 129.986 79.2247C131.638 79.3736 133.584 79.7374 135.505 80.8021L135.511 80.8042L135.515 80.8104C140.743 85.5014 148.029 92.0386 156.867 99.9672L156.875 99.9755C162.855 106.662 169.617 114.243 176.899 122.481C178.714 124.547 180.564 126.649 182.446 128.789C183.38 129.864 184.321 130.948 185.27 132.039C186.213 133.147 187.175 134.22 188.082 135.411C188.196 135.56 188.26 135.75 188.352 135.916C188.426 136.091 188.478 136.269 188.542 136.447C188.662 136.803 188.741 137.164 188.834 137.526C188.992 138.254 189.114 138.99 189.205 139.73C189.39 141.214 189.448 142.72 189.392 144.231C189.288 147.239 188.723 150.35 187.156 153.063C186.174 154.659 184.835 156.032 183.202 156.933C181.576 157.868 179.644 158.068 177.844 157.913C176.026 157.741 174.277 157.293 172.553 156.867L171.26 156.555C170.84 156.458 170.386 156.35 169.973 156.168C169.147 155.825 168.382 155.387 167.615 154.961C164.584 153.205 161.728 151.295 158.935 149.422C156.146 147.543 153.441 145.666 150.812 143.821C140.308 136.426 130.985 129.575 123.173 123.803C121.235 122.349 119.308 121.038 117.756 119.475C116.183 117.943 114.907 116.296 113.887 114.654C112.878 113.004 112.107 111.369 111.569 109.802C111.026 108.237 110.686 106.763 110.421 105.431C109.907 102.76 109.82 100.641 109.845 99.2126C109.88 97.784 109.998 97.0397 109.998 97.0397Z" fill="#17282F"/>
<path d="M164.057 98.6543C164.053 98.6585 164.012 98.6336 163.935 98.5778C163.846 98.5117 163.734 98.429 163.597 98.3256C163.305 98.0961 162.851 97.786 162.321 97.3229C161.225 96.4339 159.72 95.0529 157.922 93.2893C156.123 91.5258 154.045 89.3654 151.682 87.025C150.491 85.8632 149.241 84.6434 147.88 83.4567C146.523 82.2638 145.076 81.0709 143.476 80.0227C142.832 79.5575 142.132 79.2019 141.477 78.805L141.386 78.7491L141.406 78.652C141.518 78.1703 141.626 77.6947 141.732 77.2296L141.825 77.3888C135.351 75.3565 129.628 73.5578 125.498 72.2615C123.461 71.6103 121.82 71.0831 120.664 70.7151C120.115 70.5332 119.682 70.3885 119.367 70.2851C119.23 70.2375 119.12 70.1983 119.031 70.1672C118.956 70.1404 118.919 70.1238 118.919 70.1197C118.921 70.1156 118.96 70.1238 119.039 70.1424C119.13 70.1672 119.242 70.1983 119.381 70.2355C119.7 70.3285 120.137 70.4567 120.695 70.62C121.855 70.9715 123.505 71.4697 125.552 72.0879C129.688 73.3635 135.422 75.1291 141.906 77.1283L142.028 77.1655L141.999 77.2895C141.893 77.7547 141.786 78.2302 141.676 78.7119L141.607 78.561C142.268 78.9641 142.981 79.3239 143.63 79.7911C145.244 80.8517 146.699 82.0529 148.058 83.2541C149.426 84.449 150.673 85.6771 151.861 86.8431C154.217 89.1979 156.281 91.3728 158.061 93.1508C159.839 94.9309 161.318 96.3305 162.389 97.2423C162.909 97.7157 163.351 98.0382 163.631 98.2822C163.761 98.3938 163.869 98.4827 163.954 98.5551C164.024 98.6171 164.06 98.6523 164.057 98.6543Z" fill="#17282F"/>
<path d="M174.609 120.321C174.599 120.356 174.377 119.947 174.01 119.238C173.631 118.487 173.111 117.458 172.475 116.197C171.19 113.623 169.439 110.056 167.52 106.11C165.603 102.161 163.883 98.58 162.653 95.9792C162.054 94.7016 161.565 93.6554 161.208 92.8946C161.053 92.5494 160.929 92.2703 160.829 92.049C160.744 91.8547 160.705 91.7513 160.713 91.7472C160.723 91.7431 160.779 91.8382 160.879 92.0263C160.991 92.2392 161.132 92.5121 161.306 92.8471C161.681 93.5996 162.197 94.6333 162.829 95.8945C164.107 98.5077 165.846 102.062 167.769 105.99C169.669 109.928 171.387 113.492 172.649 116.112C173.254 117.387 173.747 118.431 174.106 119.19C174.443 119.914 174.632 120.338 174.609 120.321Z" fill="#17282F"/>
<path d="M124.937 178.383C124.941 178.379 125.005 178.383 125.127 178.391C125.264 178.399 125.446 178.412 125.676 178.43C126.168 178.47 126.872 178.527 127.776 178.6C129.607 178.759 132.245 178.984 135.532 179.268C142.111 179.855 151.276 180.671 161.679 181.598L161.534 181.765C160.991 179.582 160.423 177.297 159.845 174.969C159.58 173.903 159.318 172.846 159.061 171.812L159.18 171.918C147.495 170.564 137.111 169.362 129.9 168.527L129.991 168.482C128.271 171.521 126.947 173.975 126.08 175.681C125.649 176.532 125.334 177.2 125.148 177.663C125.053 177.893 124.991 178.07 124.964 178.195C124.928 178.319 124.945 178.376 124.937 178.383C124.918 178.391 124.91 178.108 125.1 177.645C125.272 177.173 125.573 176.497 125.991 175.635C126.831 173.913 128.132 171.446 129.831 168.391L129.86 168.339L129.922 168.345C137.136 169.158 147.521 170.328 159.211 171.643L159.306 171.655L159.329 171.748C159.586 172.78 159.849 173.836 160.112 174.903C160.69 177.231 161.256 179.516 161.799 181.701L161.844 181.887L161.654 181.868C151.227 180.895 142.036 180.039 135.441 179.423C132.169 179.106 129.541 178.854 127.715 178.678C126.824 178.587 126.13 178.517 125.645 178.467C125.419 178.443 125.243 178.424 125.113 178.41C124.993 178.395 124.935 178.387 124.937 178.383Z" fill="#17282F"/>
<path d="M161.666 183.787L127.145 181.732L125.898 178.494C126.362 178.54 126.969 178.602 127.715 178.678C129.541 178.854 132.168 179.106 135.44 179.422C142.036 180.039 151.226 180.894 161.654 181.868H161.666V183.787Z" fill="#20353D"/>
<path d="M161.666 181.868H161.654C151.227 180.895 142.036 180.039 135.441 179.423C132.169 179.106 129.541 178.854 127.715 178.678C126.97 178.602 126.362 178.54 125.898 178.494L125.89 178.469L161.666 181.732V181.868Z" fill="#0F191D"/>
<path d="M78.4241 14.3489C78.3184 12.5068 76.785 10.9645 75.0236 10.4105C73.2602 9.8564 71.333 10.1355 69.58 10.7164C65.7547 11.9817 62.5407 14.5763 59.4179 17.1213C54.5752 21.066 49.8734 26.4826 48.023 32.441C46.6304 36.9293 46.2264 39.861 47.6562 44.6326C48.9244 48.8543 49.9252 52.9498 49.6745 56.4789C49.2766 62.0631 48.597 63.3759 47.1589 68.8546C46.2616 72.2823 49.3222 81.2426 49.3222 81.2426L68.6786 73.8536C75.5893 70.6139 90.4656 64.5688 90.4656 64.5688L78.4241 14.3489Z" fill="#17282F"/>
<path d="M67.5409 79.8304C67.57 75.1353 67.6176 71.8646 67.6135 71.8977C67.6135 71.8977 59.1631 69.9522 57.4618 57.926C56.6143 51.9429 56.1729 42.4348 56.8153 34.4483C57.3934 27.2599 62.3252 18.5126 69.4971 19.3933L91.8415 25.4385C94.0215 25.7052 94.7509 27.5597 94.6701 29.7491L94.8338 30.7766L93.1967 65.1124L93.9013 79.7167C93.6153 86.2415 87.1459 92.1729 80.6061 92.4727C73.37 92.8035 67.4954 87.0581 67.5409 79.8304Z" fill="#FEC2AF"/>
<path d="M61.8758 44.0226C61.8323 44.8351 62.4851 45.5401 63.3347 45.6001C64.1822 45.6621 64.9054 45.0543 64.9489 44.2418C64.9903 43.4293 64.3376 42.7222 63.4901 42.6623C62.6405 42.6023 61.9173 43.2122 61.8758 44.0226Z" fill="#17282F"/>
<path d="M59.847 39.8547C60.0335 40.0593 61.2167 39.2158 62.8766 39.2489C64.5343 39.2592 65.7383 40.1317 65.9206 39.9312C66.0118 39.8443 65.8232 39.4784 65.299 39.0835C64.783 38.6907 63.9002 38.302 62.8662 38.2896C61.8322 38.2772 60.9577 38.6431 60.45 39.0235C59.9341 39.404 59.7538 39.7637 59.847 39.8547Z" fill="#17282F"/>
<path d="M77.4024 43.8408C77.3589 44.6533 78.0137 45.3582 78.8633 45.4182C79.7109 45.4782 80.432 44.8703 80.4755 44.0578C80.519 43.2474 79.8642 42.5403 79.0167 42.4804C78.1692 42.4204 77.446 43.0303 77.4024 43.8408Z" fill="#17282F"/>
<path d="M75.7592 39.809C75.9478 40.0116 77.1331 39.1702 78.7909 39.2033C80.4486 39.2115 81.6505 40.084 81.8349 39.8855C81.924 39.7966 81.7375 39.4307 81.2133 39.0358C80.6973 38.643 79.8145 38.2564 78.7805 38.2419C77.7465 38.2316 76.8699 38.5954 76.3643 38.9738C75.8483 39.3563 75.6681 39.716 75.7592 39.809Z" fill="#17282F"/>
<path d="M69.0972 52.3295C69.1076 52.2344 68.0798 52.0401 66.4117 51.7982C65.9889 51.7465 65.589 51.6556 65.5227 51.3661C65.4274 51.0581 65.6139 50.6053 65.8273 50.1174C66.2417 49.1023 66.679 48.0376 67.1349 46.9211C68.9542 42.3666 70.2784 38.6204 70.0939 38.5501C69.9095 38.4778 68.287 42.1102 66.4676 46.6627C66.0283 47.7853 65.6097 48.8563 65.2119 49.8817C65.0419 50.3593 64.758 50.8989 64.9632 51.5356C65.0709 51.854 65.3776 52.0876 65.6491 52.1662C65.9185 52.253 66.1568 52.2613 66.3661 52.2779C68.0466 52.3978 69.091 52.4226 69.0972 52.3295Z" fill="#17282F"/>
<path d="M67.6135 71.8979C67.6135 71.8979 75.695 72.5574 83.7911 67.8892C83.7911 67.8892 79.5824 76.287 67.5679 74.9577L67.6135 71.8979Z" fill="#933B3E"/>
<path d="M75.2268 33.9562C75.4216 34.3924 77.0586 34.0678 79.0168 34.1671C80.9792 34.2291 82.5831 34.6901 82.8131 34.2704C82.9146 34.0699 82.6142 33.6668 81.9511 33.2739C81.2921 32.8832 80.2622 32.5379 79.0873 32.4883C77.9124 32.4408 76.8576 32.6992 76.1697 33.0341C75.4775 33.369 75.1418 33.7474 75.2268 33.9562Z" fill="#17282F"/>
<path d="M59.3809 34.6883C59.7186 35.0687 61.078 34.7027 62.7047 34.711C64.3313 34.6738 65.7031 35.017 66.0264 34.6283C66.1694 34.4402 65.958 34.0598 65.3633 33.6938C64.7768 33.3279 63.7905 33.0219 62.6715 33.0302C61.5546 33.0405 60.5807 33.3651 60.0087 33.7414C59.4265 34.1177 59.2317 34.5022 59.3809 34.6883Z" fill="#17282F"/>
<path d="M69.4909 56.4085C69.8659 55.716 71.246 54.7298 72.709 54.9386L72.825 54.9407C73.5151 54.9924 74.1989 55.412 74.4413 56.0571C74.6651 56.6484 74.4911 57.343 74.0973 57.8371C73.7016 58.3313 73.113 58.6414 72.5018 58.8068C71.7122 59.0218 70.8171 58.999 70.1395 58.5421C69.4639 58.0873 69.1034 57.1259 69.4909 56.4085Z" fill="#933B3E"/>
<path d="M74.1348 53.9007C74.0519 53.8882 73.9524 54.3183 73.6436 54.9344C73.3432 55.5463 72.792 56.3423 71.9445 56.9315C71.0969 57.5186 70.1582 57.7564 69.4765 57.8246C68.7926 57.8991 68.3513 57.8432 68.3347 57.9239C68.3181 57.988 68.745 58.1823 69.491 58.2071C70.2287 58.234 71.2979 58.0355 72.2532 57.3739C73.2085 56.7103 73.768 55.7799 73.998 55.0812C74.2342 54.3741 74.199 53.9069 74.1348 53.9007Z" fill="#17282F"/>
<path d="M56.5087 48.298L54.0158 38.242C51.7799 35.1616 53.5268 30.1377 55.1141 26.6768C56.6993 23.218 59.7226 20.5697 63.0879 18.7813C66.4531 16.991 70.1706 15.982 73.8736 15.0703C72.4998 19.5525 69.0392 23.8817 64.9881 26.2592C64.9881 26.2592 58.8503 30.4416 57.7437 35.3786C56.5335 40.7726 56.5087 48.298 56.5087 48.298Z" fill="#17282F"/>
<path d="M70.4917 21.4234L88.0328 31.9425C88.0328 31.9425 88.5757 39.9145 91.771 47.6797C95.0078 44.9177 97.0074 50.2392 97.9793 46.1498C98.029 45.9348 97.0882 54.7317 93.6981 55.0067L93.1407 64.5686L109.87 60.4647C109.87 60.4647 108.97 48.8706 106.115 41.8372C104.341 37.4625 103.4 33.797 101.647 29.414C100.321 26.0958 97.9648 21.1381 96.193 18.7792C92.3906 13.7099 78.3204 13.4866 78.3204 13.4866C72.1163 14.9462 76.2917 14.2495 71.0698 17.8964L69.2856 22.6804" fill="#17282F"/>
<path d="M91.7691 47.6136C91.7567 45.0851 94.4671 43.2492 96.7693 44.3905C98.0333 45.0169 99.0487 46.3587 99.086 49.0401C99.1855 56.1934 91.8292 54.8248 91.8126 54.6201C91.8043 54.4919 91.7836 50.5721 91.7691 47.6136Z" fill="#C8555A"/>
<path d="M94.0071 51.8767C94.0402 51.854 94.1376 51.9615 94.3531 52.0566C94.5645 52.1475 94.9251 52.2054 95.3043 52.0607C96.0731 51.7733 96.7072 50.5639 96.7237 49.2738C96.7341 48.6226 96.587 48.0044 96.3424 47.4958C96.1124 46.9748 95.7622 46.6151 95.3727 46.5531C94.9852 46.4704 94.7116 46.7019 94.6267 46.9045C94.5314 47.1072 94.579 47.2498 94.5396 47.2622C94.521 47.2788 94.3822 47.1444 94.4381 46.8467C94.465 46.7061 94.5479 46.5345 94.7178 46.396C94.8919 46.2533 95.1489 46.1789 95.4203 46.2037C95.984 46.2326 96.4979 46.7329 96.7652 47.2932C97.0615 47.8556 97.2438 48.5482 97.2335 49.28C97.2065 50.7231 96.4709 52.0814 95.4182 52.3956C94.9064 52.5341 94.4754 52.3894 94.2516 52.224C94.0237 52.0504 93.9822 51.8912 94.0071 51.8767Z" fill="#933B3E"/>
<path d="M78.853 13.4681C78.8675 13.4784 78.7639 13.6335 78.5504 13.8981C78.3329 14.1565 78.0034 14.5183 77.5786 14.9442C76.7269 15.7981 75.5023 16.9228 74.145 18.1549C72.7856 19.3892 71.5651 20.5118 70.6989 21.3429C69.8307 22.172 69.3168 22.7074 69.2857 22.6805C69.2712 22.6681 69.3831 22.5193 69.6006 22.2588C69.8141 21.9983 70.1436 21.6406 70.5601 21.2044C71.3952 20.3361 72.5991 19.1866 73.9585 17.9523C75.2909 16.747 76.4969 15.6575 77.4418 14.8036C78.3329 13.9973 78.8219 13.4433 78.853 13.4681Z" fill="#33535F"/>
<path d="M59.3413 19.5299C59.3288 19.5196 59.4884 19.317 59.8075 18.9779C60.1245 18.6389 60.6115 18.1696 61.2642 17.6507C62.5635 16.6149 64.5798 15.393 67.0602 14.7376C68.2931 14.411 69.5758 14.3304 70.6554 14.6922C71.733 15.0312 72.5577 15.7734 72.8872 16.5715C73.2249 17.3674 73.1462 18.1014 72.9887 18.5417C72.912 18.7671 72.8146 18.9242 72.7442 19.0255C72.6696 19.1247 72.6261 19.1723 72.6199 19.1661C72.5929 19.1516 72.767 18.949 72.8851 18.5086C73.0053 18.0807 73.0467 17.386 72.709 16.6521C72.3795 15.9223 71.6024 15.2421 70.5787 14.9341C69.5572 14.6053 68.3346 14.686 67.1306 15.0043C64.6979 15.6494 62.6982 16.8216 61.3844 17.8057C60.0644 18.796 59.3786 19.5692 59.3413 19.5299Z" fill="#33535F"/>
<path d="M55.3254 26.7264C55.3129 26.7119 55.4766 26.53 55.7854 26.2116C56.0941 25.8932 56.5459 25.4404 57.122 24.8946C58.2741 23.8154 59.9153 22.3228 62.0455 21.1278C63.1106 20.5489 64.1881 20.0651 65.2512 19.8935C66.3038 19.7075 67.3213 19.8853 68.0217 20.3091C68.7283 20.7226 69.1262 21.289 69.294 21.7046C69.3748 21.9175 69.4142 22.0871 69.4287 22.2049C69.4391 22.3228 69.4411 22.3848 69.4308 22.3848C69.4038 22.3889 69.381 22.1408 69.1966 21.748C69.006 21.3655 68.606 20.8487 67.9243 20.4786C67.2508 20.1003 66.3038 19.9535 65.2926 20.1437C64.2793 20.3194 63.2308 20.7991 62.1781 21.3697C60.0852 22.544 58.4378 23.9974 57.2546 25.0373C56.6972 25.5376 56.2288 25.9573 55.86 26.2881C55.5284 26.5837 55.3399 26.7388 55.3254 26.7264Z" fill="#33535F"/>
<path d="M97.3225 55.3169C97.3702 56.6959 96.2885 57.8536 94.9043 57.9012C93.52 57.9487 92.3617 56.8675 92.314 55.4864C92.2664 54.1075 93.3501 52.9497 94.7323 52.9021C96.1165 52.8546 97.2769 53.9359 97.3225 55.3169Z" fill="#33535F"/>
<path d="M51.3675 126.809C50.7665 127.208 44.1521 128.808 42.5503 133.007C40.9464 137.208 32.4359 145.744 38.5945 154.074L51.3675 147.005V126.809Z" fill="#F2575D"/>
<path d="M51.3552 126.831C51.2288 126.906 50.9221 127.018 50.5076 127.168C48.5204 127.892 43.8704 129.587 42.5608 133.013C42.1982 133.964 41.4853 135.13 40.6606 136.48C39.2764 138.744 37.5544 141.562 36.7959 144.58C36.3815 146.236 36.2924 147.764 36.5245 149.249C36.7877 150.931 37.486 152.55 38.5988 154.057L51.3552 146.999V126.831ZM38.5905 154.091L38.5843 154.082C37.4653 152.569 36.7628 150.944 36.4976 149.253C36.2655 147.764 36.3546 146.234 36.7711 144.574C37.5295 141.552 39.2536 138.732 40.6378 136.466C41.4625 135.118 42.1754 133.952 42.538 133.003C43.8497 129.565 48.508 127.869 50.4994 127.144C50.9366 126.984 51.2536 126.871 51.3614 126.798L51.3821 126.784V147.014L51.3759 147.018L38.5905 154.091Z" fill="#17282F"/>
<path d="M66.1008 91.9992L67.1473 77.5892L93.4393 66.6443L94.3717 72.0217L76.4618 81.1142L66.1008 91.9992Z" fill="#DADBD8"/>
<path d="M94.3717 68.8481C94.3717 68.8481 78.2666 75.3502 71.1217 81.6993C64.4036 87.6741 50.4329 111.212 48.9368 117.631C47.4407 124.051 47.7349 141.812 47.7349 141.812C47.7349 141.812 47.6976 160.133 47.6976 160.58C47.6976 161.028 36.1762 190.586 38.2712 206.71H103.958C103.958 206.71 105.903 184.018 101.415 175.211C96.9267 166.404 96.7775 168.194 96.7775 168.194C96.7775 168.194 99.4692 165.209 99.1709 162.521C98.8704 159.834 97.2251 157.595 97.2251 157.595L108.746 121.766C108.746 121.766 109.944 103.703 106.801 91.6105C103.856 80.2727 102.76 80.9136 99.0755 77.2894C99.0382 77.2522 99.0465 77.2729 99.0631 77.2956C99.0797 77.3184 99.1025 77.3411 99.0755 77.2894L95.7289 74.5501L94.3717 68.8481Z" fill="#F2575D"/>
<path d="M51.3675 178.383C51.1624 177.609 56.3428 168.436 56.3428 168.436L86.0311 173.411L88.0971 181.732L51.3675 178.383Z" fill="#F2575D"/>
<path d="M51.3675 178.383C51.3717 178.379 51.4359 178.383 51.5602 178.391C51.697 178.399 51.8773 178.412 52.1094 178.43C52.6026 178.469 53.3071 178.527 54.2106 178.6C56.0465 178.759 58.6865 178.986 61.9751 179.268C68.5584 179.855 77.7237 180.671 88.1096 181.598L87.9645 181.765C87.463 179.747 86.9388 177.632 86.4021 175.48C86.2322 174.792 86.0622 174.107 85.8965 173.444L86.0084 173.545C74.1741 171.546 63.6245 169.761 56.3284 168.527L56.4237 168.482C54.7038 171.519 53.3796 173.971 52.5155 175.678C52.0824 176.532 51.7675 177.2 51.5789 177.661C51.4856 177.893 51.4235 178.07 51.3945 178.195C51.3613 178.319 51.3758 178.376 51.3675 178.383C51.3489 178.391 51.3406 178.106 51.5312 177.643C51.7032 177.171 52.0058 176.495 52.4244 175.633C53.2636 173.911 54.5649 171.444 56.262 168.391L56.2931 168.335L56.3574 168.345C63.6577 169.557 74.2155 171.308 86.0539 173.274L86.1431 173.289L86.1658 173.377C86.3295 174.041 86.4995 174.725 86.6715 175.414C87.2061 177.566 87.7304 179.683 88.2297 181.701L88.2774 181.887L88.0847 181.868C77.674 180.897 68.4838 180.041 61.8818 179.425C58.6098 179.108 55.9782 178.854 54.1505 178.678C53.2594 178.587 52.5632 178.517 52.0762 178.467C51.8524 178.443 51.6763 178.424 51.5437 178.41C51.4256 178.395 51.3655 178.387 51.3675 178.383Z" fill="#17282F"/>
<path d="M45.3852 167.332L45.3292 166.875C45.3997 166.875 45.4681 166.875 45.5385 166.873C45.4888 167.024 45.437 167.177 45.3852 167.332ZM45.6587 166.513C45.5344 166.513 45.41 166.511 45.2836 166.511L44.9915 164.15C45.7955 163.203 46.614 162.271 47.4449 161.351C47.1092 162.31 46.4627 164.119 45.6587 166.513Z" fill="#9FA1A1"/>
<path d="M45.3293 166.875L45.2837 166.511C45.4101 166.511 45.5344 166.514 45.6588 166.514C45.6194 166.631 45.5779 166.753 45.5386 166.873C45.4681 166.875 45.3997 166.875 45.3293 166.875Z" fill="#8F9192"/>
<path d="M53.2513 171.779C50.5347 171.779 47.8781 171.087 45.6546 169.518L45.3853 167.332C45.4371 167.177 45.4889 167.024 45.5386 166.873C45.578 166.753 45.6194 166.632 45.6588 166.514C46.4628 164.12 47.1093 162.311 47.445 161.351C63.6599 143.404 84.875 130.265 100.398 111.673C94.1419 128.068 84.9703 143.243 74.4436 157.295C70.9996 161.893 67.2738 166.495 62.2736 169.327C60.1268 168.972 58.1437 168.643 56.3575 168.345L56.2933 168.335L56.2622 168.391C55.5887 169.602 54.9774 170.721 54.4324 171.738C54.0387 171.765 53.645 171.779 53.2513 171.779Z" fill="#CC4341"/>
<path d="M54.6147 171.724C55.1473 170.752 55.742 169.687 56.3906 168.538C58.0898 168.825 59.9651 169.141 61.9917 169.484C59.7413 170.713 57.1801 171.511 54.6147 171.724Z" fill="#CC4341"/>
<path d="M54.4321 171.738C54.9771 170.721 55.5884 169.602 56.2619 168.391L56.293 168.335L56.3572 168.345C58.1434 168.643 60.1265 168.972 62.2733 169.327C62.2319 169.352 62.1904 169.375 62.149 169.398C62.0972 169.427 62.0433 169.456 61.9915 169.484C59.9649 169.141 58.0895 168.825 56.3903 168.538C55.7418 169.687 55.147 170.752 54.6145 171.723C54.5544 171.728 54.4943 171.734 54.4321 171.738Z" fill="#0F191D"/>
<path d="M98.0271 84.0149C103.541 88.3937 108.344 102.088 99.8112 113.929C99.8112 113.929 62.518 164.407 56.3429 168.436C50.1657 172.466 41.852 170.096 39.4773 164.171C37.1026 158.246 38.0516 152.558 41.3775 148.529C44.7034 144.5 66.5567 106.107 66.5567 106.107C66.5567 106.107 71.5424 88.311 80.0342 83.1445" fill="#F2575D"/>
<path d="M80.0343 83.1445C80.0343 83.1445 79.9058 83.2396 79.6509 83.4154C79.3877 83.5787 79.021 83.8599 78.5464 84.2361C77.6077 85.0031 76.3354 86.2829 74.9533 88.1498C72.2055 91.8918 69.089 98.0073 66.6438 106.132L66.6417 106.145L66.6355 106.153C61.8384 114.576 55.8539 125.057 48.8851 136.825C47.1279 139.759 45.3292 142.782 43.3896 145.827C42.884 146.577 42.4219 147.357 41.8604 148.091C41.591 148.467 41.3174 148.831 41.0377 149.188C40.7642 149.55 40.5176 149.935 40.2772 150.324C39.8047 151.105 39.4297 151.949 39.1043 152.813C38.8122 153.689 38.578 154.591 38.4475 155.515C38.1926 157.363 38.2672 159.28 38.6878 161.138C38.7914 161.603 38.9033 162.066 39.0505 162.523C39.1769 162.984 39.353 163.433 39.5188 163.884C39.6825 164.337 39.9187 164.752 40.1197 165.188L40.5134 165.79C40.6419 165.995 40.7725 166.195 40.9382 166.371C42.1546 167.861 43.8144 169.023 45.6836 169.635C47.5402 170.264 49.571 170.464 51.5396 170.142C53.3527 169.844 55.0954 169.139 56.5667 168.091C57.982 166.966 59.1942 165.581 60.4106 164.254C62.8206 161.558 65.0917 158.81 67.3027 156.094C71.7165 150.652 75.8712 145.322 79.8043 140.226C83.7352 135.128 87.4361 130.257 90.8843 125.686C92.6042 123.397 94.264 121.187 95.8617 119.062C96.6553 117.997 97.4345 116.955 98.197 115.934C98.9492 114.906 99.7346 113.933 100.362 112.897C101.745 110.9 102.646 108.745 103.326 106.676C103.471 106.151 103.614 105.632 103.753 105.121C103.896 104.611 103.945 104.088 104.043 103.583C104.26 102.574 104.273 101.574 104.36 100.614C104.484 96.7544 103.686 93.4569 102.706 90.9387C101.716 88.4061 100.489 86.6468 99.5605 85.5676C99.3222 85.3029 99.1316 85.0486 98.9327 84.8646C98.7337 84.6806 98.5659 84.5256 98.4291 84.3995C98.1618 84.1493 98.0271 84.0149 98.0271 84.0149C98.0271 84.0149 98.1742 84.1348 98.4498 84.3788C98.5887 84.5028 98.7586 84.6538 98.9617 84.8336C99.1668 85.0156 99.3595 85.2678 99.602 85.5324C100.549 86.6033 101.794 88.3607 102.806 90.8974C103.806 93.4238 104.625 96.7358 104.513 100.62C104.43 101.584 104.422 102.593 104.206 103.608C104.109 104.117 104.061 104.644 103.918 105.158C103.78 105.675 103.639 106.198 103.494 106.728C102.816 108.814 101.915 110.987 100.526 113.004C99.8921 114.053 99.1109 115.026 98.3607 116.056C97.6023 117.077 96.8252 118.123 96.0316 119.19C94.4401 121.318 92.7824 123.532 91.0687 125.824C87.6268 130.4 83.9321 135.277 80.0073 140.381C76.0785 145.484 71.9258 150.818 67.5141 156.263C65.3031 158.982 63.0319 161.734 60.6158 164.436C60.0169 165.116 59.3911 165.778 58.7612 166.437C58.1146 167.086 57.4785 167.748 56.7304 168.312C55.2136 169.391 53.4398 170.109 51.5831 170.413C49.5689 170.743 47.4946 170.539 45.5924 169.896C43.6797 169.267 41.9764 168.076 40.7248 166.542C40.5549 166.361 40.4181 166.154 40.2876 165.943L39.8814 165.323C39.6721 164.876 39.4297 164.44 39.2618 163.983C39.0961 163.524 38.9178 163.071 38.7894 162.602C38.6402 162.139 38.5262 161.667 38.4205 161.196C37.9957 159.309 37.9211 157.359 38.1801 155.476C38.3148 154.535 38.5531 153.617 38.8515 152.724C39.1831 151.843 39.5664 150.985 40.0493 150.187C40.2938 149.792 40.5445 149.399 40.8263 149.031C41.1123 148.663 41.3879 148.297 41.6511 147.931C42.1981 147.214 42.6664 146.431 43.1679 145.686C45.1075 142.649 46.9103 139.627 48.6696 136.697C55.6487 124.942 61.656 114.47 66.478 106.062L66.4676 106.083C68.9418 97.9411 72.0916 91.8298 74.8745 88.0919C76.2712 86.2271 77.5621 84.9515 78.5154 84.1969C78.9961 83.8247 79.3691 83.5518 79.6364 83.3926C79.8975 83.2252 80.0343 83.1445 80.0343 83.1445Z" fill="#17282F"/>
<path d="M63.5871 122.221C63.5871 122.221 62.6277 119.715 60.7109 119.384C58.7921 119.052 55.0808 119.405 55.0808 119.405C55.0808 119.405 53.4458 120.631 53.4603 122.316C53.4769 123.999 53.8064 125.177 53.8064 125.177C53.8064 125.177 52.4616 123.373 50.6981 125.082C48.9326 126.792 47.3785 130.257 47.3785 130.257C47.3785 130.257 45.0286 131.008 44.1334 132.145C43.2382 133.284 42.7098 135.126 42.7098 135.126C42.7098 135.126 40.7868 136.292 41.0873 138.785C41.3878 141.279 43.5801 142.327 43.5801 142.327C43.5801 142.327 50.5841 147.479 51.442 146.813C52.2999 146.147 54.0509 145.095 51.5311 142.868C49.0093 140.644 47.4303 139.24 47.4303 139.24L48.6176 137.412C48.6176 137.412 55.4745 142.114 56.5749 141.888C57.6731 141.663 59.5464 141.626 58.7797 139.937C58.013 138.25 51.5995 133.327 51.5995 133.327L52.36 130.689C52.36 130.689 59.7681 135.699 60.9865 134.896C62.2029 134.094 63.2846 133.72 62.0537 132.07C60.8228 130.42 55.4642 126.476 55.4642 126.476L57.6586 124.433C57.6586 124.433 62.8329 125.31 63.5871 122.221Z" fill="#C8555A"/>
<path d="M95.729 74.5503C95.729 74.5545 95.6668 74.5731 95.5446 74.6062C95.4078 74.6413 95.2275 74.6889 94.9996 74.7509C94.5209 74.877 93.8143 75.0589 92.9108 75.3153C91.1038 75.8301 88.4867 76.595 85.368 77.8396C84.5889 78.1497 83.7807 78.4971 82.956 78.8899C82.5415 79.0863 82.123 79.2889 81.7065 79.5184C81.4972 79.63 81.2796 79.7375 81.0744 79.8595C80.8755 79.9918 80.6662 80.1097 80.4735 80.2585C78.9152 81.4452 77.4958 83.0247 76.0287 84.6807C73.1214 88.032 70.1581 91.9147 67.1182 96.0371C64.0866 100.166 61.2788 104.16 58.7652 107.821C57.5116 109.651 56.3304 111.4 55.2404 113.046C54.1463 114.689 53.1599 116.236 52.4243 117.741C50.9323 120.743 50.0537 123.321 49.4694 125.101C49.1834 125.994 48.9762 126.693 48.8374 127.166C48.771 127.392 48.7192 127.572 48.6819 127.706C48.6446 127.828 48.626 127.888 48.6198 127.888C48.6156 127.888 48.626 127.822 48.6529 127.7C48.6861 127.561 48.7296 127.381 48.7835 127.152C48.9057 126.672 49.0964 125.969 49.3678 125.068C49.9211 123.275 50.7707 120.681 52.2482 117.654C52.9776 116.135 53.964 114.567 55.0498 112.92C56.1315 111.268 57.3064 109.515 58.5559 107.679C61.0591 104.007 63.8607 100.007 66.8965 95.8738C69.9385 91.7472 72.9121 87.8666 75.8359 84.5133C77.3155 82.8552 78.7412 81.2798 80.3388 80.0745C80.5357 79.9215 80.7574 79.8016 80.9625 79.6652C81.1739 79.539 81.3915 79.4357 81.6028 79.322C82.0235 79.0945 82.4462 78.8919 82.8648 78.6997C83.6978 78.3069 84.5122 77.9657 85.2955 77.6577C88.4349 76.4338 91.0645 75.6957 92.8818 75.2119C93.7915 74.9721 94.5022 74.8046 94.9871 74.6951C95.2171 74.6475 95.3995 74.6082 95.5383 74.5793C95.6627 74.5545 95.7269 74.5441 95.729 74.5503Z" fill="#17282F"/>
<path d="M91.5597 165.017C91.5494 165.033 91.2572 164.868 90.7371 164.554C90.2169 164.244 89.4813 163.766 88.5923 163.144C86.8123 161.905 84.4521 160.04 82.1002 157.71C79.7503 155.374 77.8667 153.028 76.6172 151.26C75.9893 150.377 75.5044 149.645 75.1936 149.126C74.8765 148.61 74.7087 148.32 74.7252 148.31C74.7418 148.3 74.9387 148.57 75.2827 149.069C75.6225 149.567 76.1302 150.28 76.7746 151.146C78.0615 152.879 79.9575 155.19 82.295 157.514C84.6345 159.834 86.9615 161.711 88.7063 162.987C89.5766 163.625 90.2936 164.128 90.7972 164.465C91.2966 164.804 91.5701 165 91.5597 165.017Z" fill="#17282F"/>
<path d="M53.2201 181.732L52.3291 178.494C52.7933 178.54 53.4025 178.602 54.1506 178.678C55.9782 178.854 58.6099 179.108 61.8819 179.424C67.9223 179.987 76.1261 180.752 85.451 181.622L53.2201 181.732Z" fill="#CC4341"/>
<path d="M85.451 181.622C76.1261 180.752 67.9223 179.987 61.8819 179.425C58.6099 179.108 55.9782 178.854 54.1505 178.678C53.4025 178.602 52.7933 178.54 52.3291 178.494L52.3208 178.469L86.8394 181.618L85.451 181.622Z" fill="#0F191D"/>
</svg>
